HIERARCHY
ROOT pelvis
{
  OFFSET 0 100 0
  CHANNELS 6 Xposition Yposition Zposition Zrotation Xrotation Yrotation
  JOINT pelvis_right_femur
  {
    OFFSET -10.78128 -3.44521 -0.5502486
    CHANNELS 3 Zrotation Xrotation Yrotation
    JOINT right_femur_tibia
    {
      OFFSET -0.8047443 -44.0398 -0.1307829
      CHANNELS 3 Zrotation Xrotation Yrotation
      JOINT right_tibia_foot
      {
        OFFSET 3.006224 -47.83518 -5
        CHANNELS 3 Zrotation Xrotation Yrotation
        End Site
        {
          OFFSET 0 -5 15
        }
      }
    }
  }
  JOINT pelvis_left_femur
  {
    OFFSET 10.78128 -3.44521 -0.5502486
    CHANNELS 3 Zrotation Xrotation Yrotation
    JOINT left_femur_tibia
    {
      OFFSET 0.8047443 -44.0398 -0.1307829
      CHANNELS 3 Zrotation Xrotation Yrotation
      JOINT left_tibia_foot
      {
        OFFSET -4.370144 -48.10324 -4.275266
        CHANNELS 3 Zrotation Xrotation Yrotation
        End Site
        {
          OFFSET 0 -5 15
        }
      }
    }
  }
  JOINT pelvis_spine1
  {
    OFFSET 0 6.468898 -3.129235
    CHANNELS 3 Zrotation Xrotation Yrotation
    JOINT spine1
    {
      OFFSET 0 23.15396 4.99043
      CHANNELS 3 Zrotation Xrotation Yrotation
      JOINT spine2
      {
        OFFSET 0 20.79997 -5.064912
        CHANNELS 3 Zrotation Xrotation Yrotation
        JOINT neck
        {
          OFFSET 0 14.38658 9.616178
          CHANNELS 3 Zrotation Xrotation Yrotation
          End Site
          {
            OFFSET 0 20 0
          }
        }
      }
      JOINT right_manubrium
      {
        OFFSET -5.722621 16.35077 3.967754
        CHANNELS 3 Zrotation Xrotation Yrotation
        JOINT right_clavicle
        {
          OFFSET -13.16364 1.694482 -4.693211
          CHANNELS 3 Zrotation Xrotation Yrotation
          JOINT right_humerus
          {
            OFFSET -28.5034 -0.3100689 -2.792744
            CHANNELS 3 Zrotation Xrotation Yrotation
            JOINT right_radius
            {
              OFFSET -25.15693 0.02248979 -1.271978
              CHANNELS 3 Zrotation Xrotation Yrotation
              End Site
              {
                OFFSET -15 0 0
              }
            }
          }
        }
      }
      JOINT left_manubrium
      {
        OFFSET 5.722621 16.35077 3.967754
        CHANNELS 3 Zrotation Xrotation Yrotation
        JOINT left_clavicle
        {
          OFFSET 13.16364 1.694482 -4.693211
          CHANNELS 3 Zrotation Xrotation Yrotation
          JOINT left_humerus
          {
            OFFSET 29.39168 -1.063119 -2.237045
            CHANNELS 3 Zrotation Xrotation Yrotation
            JOINT left_radius
            {
              OFFSET 24.59957 -0.9528479 0.9047498
              CHANNELS 3 Zrotation Xrotation Yrotation
              End Site
              {
                OFFSET 15 -0 -0
              }
            }
          }
        }
      }
    }
  }
}
MOTION
Frames: 13
Frame Time: 0.0416666666667
0 103.5113 0 1.448774 -0.8846525 0.1256557 4.435271 -14.57845 12.10825 -0 36.75223 -0 -4.29731 -17.46622 -4.970306 -6.929626 8.766041 -20.40401 -0 5.218203 -0 18.62827 -9.315234 26.88453 -4.364118 -4.02786 5.953634 1.853833 11.15413 -6.355925 1.812211 22.59122 5.414681 2.463603 -23.34034 9.132186 6.282181 -21.28167 10.62148 84.63022 38.59876 -16.48371 -0 0 15.71708 -8.132351 8.666964 5.653113 5.595261 -19.70924 -3.107981 -91.74779 23.38082 20.92047 0 0 -16.86309 15.17075 13.5699 -1.380796
0.4743137 103.4524 1.737418 1.037185 0.3084339 0.2108802 5.265984 -17.69083 12.94367 -0 36.32039 -0 -4.536658 -17.22756 -5.043654 -6.794986 9.211836 -20.56455 -0 5.851501 -0 19.00479 -10.08131 27.01574 -4.397406 -4.177022 6.109933 1.880889 10.89754 -6.273593 1.842567 22.66658 5.281414 2.255448 -23.42473 9.200289 5.995921 -21.60714 10.43552 84.46558 39.06899 -16.23827 -0 0 15.72317 -7.811804 8.453892 5.672208 5.544281 -19.6164 -3.315663 -91.34383 23.70509 20.71055 0 0 -18.25822 15.46748 13.4753 -1.366029
0.8667513 103.3013 3.454871 0.9160417 0.2417111 0.3008183 5.140225 -18.37191 11.98059 -0 35.48123 -0 -4.764198 -16.88355 -4.76376 -6.801681 9.911709 -21.09507 -0 5.833287 -0 16.98685 -12.03097 27.21124 -3.751123 -3.577625 6.069228 1.917883 10.77861 -6.429248 1.80966 22.38374 5.40172 2.453413 -23.85291 9.064914 5.824693 -21.04271 10.52784 84.94083 38.39873 -16.84426 -0 0 15.31679 -8.02737 8.724844 5.530299 5.562078 -19.88484 -3.016888 -91.69875 24.12102 21.01869 0 0 -18.10612 14.26871 13.58914 -0.07420349
1.183396 103.1473 5.245245 0.6081571 0.6700924 0.3742174 5.512963 -20.13035 11.65075 -0 34.42221 -0 -5.208578 -16.29803 -4.571799 -6.630221 10.36401 -21.19849 -0 6.333999 -0 16.09884 -13.25688 27.10191 -3.299369 -3.252635 6.039282 1.989577 10.63731 -6.575239 1.828579 22.21578 5.417504 2.490512 -24.2186 9.04212 5.682301 -20.71153 10.54076 85.38271 38.02481 -17.48158 -0 0 14.96711 -7.854724 8.803103 5.243551 5.561056 -20.06031 -2.896876 -91.90742 24.57928 21.20412 0 0 -18.377 13.53441 13.79335 0.8299747
1.431128 102.9845 7.114223 0.2979498 1.213244 0.4538087 5.906063 -22.1002 11.44186 -0 33.47414 -0 -5.483995 -15.75865 -4.420435 -6.485802 10.90718 -21.32002 -0 6.740499 -0 14.95772 -14.68323 26.85847 -2.842251 -2.946183 5.994958 2.072311 10.47168 -6.727777 1.859795 22.0545 5.41889 2.509114 -24.59826 9.035213 5.544497 -20.3799 10.54134 85.83643 37.66034 -18.16636 -0 0 14.60036 -7.606356 8.849963 4.912539 5.556454 -20.22292 -2.802867 -92.12063 25.09305 21.39033 0 0 -18.71354 12.78733 14.03888 1.77329
1.617549 102.8178 9.128455 -0.06768532 1.8085 0.5478393 6.425978 -24.16501 11.30282 -0 32.2659 -0 -5.915152 -15.02093 -4.264752 -6.254378 11.3314 -21.20849 -0 7.442671 -0 14.07579 -15.76477 26.39523 -2.436221 -2.681082 5.94363 2.147829 10.30629 -6.859472 1.892254 21.91606 5.415976 2.522001 -24.93294 9.032256 5.427383 -20.08175 10.53531 86.2218 37.34121 -18.77075 -0 0 14.27273 -7.367391 8.875476 4.614296 5.549945 -20.35247 -2.736307 -92.31077 25.57865 21.55443 0 0 -19.03706 12.09851 14.27024 2.649011
1.748978 102.6566 11.33987 -0.4663955 2.468043 0.6687649 7.017315 -26.28849 11.24962 -0 30.96061 -0 -6.389485 -14.17778 -4.124342 -5.980921 11.73863 -20.98266 -0 8.356045 -0 13.14001 -16.70421 25.71244 -2.061536 -2.433756 5.885883 2.21554 10.13836 -6.973055 1.92223 21.79136 5.414575 2.538192 -25.23173 9.024043 5.323877 -19.79839 10.52724 86.54744 37.04777 -19.30151 -0 0 13.97135 -7.161212 8.893842 4.357268 5.540804 -20.45851 -2.686901 -92.48265 26.04441 21.70148 0 0 -19.34496 11.42421 14.48077 3.503034
1.832304 102.5098 13.80944 -0.8835784 3.087377 0.8230485 7.630121 -28.19315 11.20372 -0 29.57293 -0 -7.004914 -13.20763 -3.979405 -5.649925 12.07561 -20.6146 -0 9.645983 -0 12.1903 -17.30114 24.78709 -1.735923 -2.20492 5.824757 2.270929 9.980895 -7.062043 1.943198 21.68392 5.419833 2.563709 -25.47549 9.00216 5.239591 -19.53614 10.52363 86.79063 36.78765 -19.71757 -0 0 13.70802 -7.028939 8.917265 4.174649 5.527049 -20.53901 -2.650581 -92.62318 26.4525 21.81976 0 0 -19.60152 10.78407 14.64485 4.299484
1.873576 102.395 16.59079 -1.308766 3.630909 1.013769 8.220138 -29.74673 11.15089 -0 28.23152 -0 -7.752291 -12.17671 -3.836501 -5.268278 12.34368 -20.15006 -0 11.4033 -0 11.09445 -17.53117 23.59459 -1.459965 -1.990057 5.763843 2.313304 9.83732 -7.1261 1.95268 21.59383 5.432228 2.599071 -25.66123 8.962012 5.17268 -19.29501 10.5269 86.95052 36.56437 -20.01239 -0 0 13.47933 -6.984067 8.952973 4.076478 5.506489 -20.59771 -2.625626 -92.72365 26.79514 21.90301 0 0 -19.81068 10.1796 14.75429 5.036494
1.879082 102.335 19.72399 -1.722548 4.008917 1.231818 8.721799 -30.71524 11.03171 -0 27.05029 -0 -8.655365 -11.16786 -3.694796 -4.835122 12.4777 -19.60583 -0 13.78754 -0 9.817536 -17.26961 22.13262 -1.240841 -1.789031 5.708726 2.340292 9.714465 -7.162524 1.947801 21.52352 5.451731 2.644034 -25.77978 8.898829 5.122841 -19.08079 10.53958 87.01993 36.3875 -20.16868 -0 0 13.28728 -7.044936 9.008291 4.078049 5.47703 -20.63681 -2.611413 -92.77092 27.05512 21.94177 0 0 -19.97267 9.626045 14.79725 5.696061
1.855862 102.3599 23.22738 -2.103964 4.150792 1.454902 9.078526 -30.92509 10.79839 -0 26.11204 -0 -9.695776 -10.29892 -3.563339 -4.354821 12.38159 -18.99647 -0 16.9464 -0 8.329069 -16.43951 20.41697 -1.080418 -1.600249 5.666537 2.348652 9.616013 -7.168693 1.92708 21.47466 5.476878 2.697288 -25.82399 8.80825 5.087078 -18.8987 10.5624 86.99468 36.26649 -20.17419 -0 0 13.1325 -7.225247 9.089181 4.189836 5.437326 -20.65998 -2.608513 -92.75283 27.22473 21.92901 0 0 -20.10198 9.132232 14.7668 6.273031
1.812784 102.5016 27.0901 -2.418448 3.981906 1.644846 9.233635 -30.21176 10.3887 -0 25.41289 -0 -10.83122 -9.695729 -3.450984 -3.840109 11.89808 -18.31109 -0 20.99994 -0 6.682222 -14.98659 18.50905 -0.9805921 -1.423023 5.646344 2.333296 9.545255 -7.140378 1.889361 21.44894 5.505931 2.75755 -25.78425 8.685666 5.061391 -18.7565 10.59555 86.86647 36.21117 -20.01065 -0 0 13.02071 -7.541959 9.201279 4.42403 5.386994 -20.67022 -2.617078 -92.65766 27.29594 21.85984 0 0 -20.21439 8.706964 14.65604 6.763548
1.760767 102.7877 31.27007 -2.619596 3.459329 1.755198 9.146973 -28.47857 9.746166 -0 24.82763 -0 -11.97894 -9.453912 -3.360959 -3.317912 10.82873 -17.51636 -0 25.96133 -0 4.989437 -12.95163 16.51253 -0.9410598 -1.256926 5.658783 2.287879 9.502746 -7.072292 1.834139 21.44684 5.537055 2.82353 -25.65108 8.526798 5.039478 -18.66389 10.63841 86.6226 36.22828 -19.6546 -0 0 12.9644 -8.014023 9.348925 4.792992 5.326949 -20.66917 -2.6353 -92.47725 27.26366 21.73487 0 0 -20.32641 8.353288 14.45987 7.171157
